<?xml version="1.0" encoding="utf-8"?>
<!-- Generator: Adobe Illustrator 26.3.1, SVG Export Plug-In . SVG Version: 6.00 Build 0)  -->
<svg version="1.1" id="pb-multimediadesign" xmlns="http://www.w3.org/2000/svg" xmlns:xlink="http://www.w3.org/1999/xlink"
	 x="0px" y="0px" viewBox="0 0 120 120" style="enable-background:new 0 0 120 120;" xml:space="preserve">
<style type="text/css">
	.st0{fill:#cccccc;}
	svg:hover .st0{fill:#BDBDBD;}
	.st1{fill:#FFFFFF;stroke:#000000;stroke-miterlimit:10;}
	svg:hover .st1 {fill:#BDBDBD;stroke:#000000;stroke-miterlimit:10;}
	.st2{fill:#000000;}
	.st3{fill:#FFFFFF;stroke:#000000;stroke-miterlimit:10;}
	svg:hover .st3 {
		fill:#BDBDBD;stroke:#000000;stroke-miterlimit:10;
	}

.cicle1, .star1 { 
  animation-name: boom1;
  }
.cicle2, .star2 { 
  animation-name: boom2;
  }
.cicle3, .star3 { 
  animation-name: boom3;
  }
.ani-duration1 { 
  animation-duration: 5s;
  animation-iteration-count:infinite;
  transform-origin: 50% 50%;
  animation-timing-function: ease-in-out;
  animation-play-state: running;
  }
.ani-duration2 { 
  animation-duration: 8s;
  animation-iteration-count:infinite;
  transform-origin: 50% 50%;
  animation-timing-function: ease-in-out;
  animation-play-state: running;
  }
svg:hover .ani-duration1, svg:hover .ani-duration2 {animation-play-state: paused;}

@keyframes boom1 {
    0% {transform: scale(0.2);}
    20% {transform: scale(0.2);}
    40% {transform: scale(0.8);}
    60% {transform: scale(0.8);}
    100% {transform: scale(0.2);}
}
@keyframes boom2 {
    0% {transform: scale(0.3) rotate(180deg);}
    10% {transform: scale(0.3);}
    30% {transform: scale(0.8);}
    50% {transform: scale(0.8) rotate(0deg);}
    90% {transform: scale(0.3) rotate(180deg);}
    100% {transform: scale(0.3) rotate(180deg);}
}
@keyframes boom3 {
    0% {transform: scale(0) rotate(0deg);}
    20% {transform: scale(0.8);}
    40% {transform: scale(0.8);}
	50% {transform: scale(0.6) rotate(180deg);}
    80% {transform: scale(0) rotate(0deg);}
    100% {transform: scale(0) rotate(0deg);}
}

</style>
<path class="st0" d="M60,5.8c29.8,0,54,24.2,54,54s-24.2,54-54,54S6,89.6,6,59.8S30.2,5.8,60,5.8"/>
<a>
	<g>
		<path d="M60,6c29.8,0,54,24.2,54,54s-24.2,54-54,54S6,89.8,6,60S30.2,6,60,6 M60,5L60,5C29.6,5,5,29.6,5,60l0,0
			c0,30.4,24.6,55,55,55l0,0c30.4,0,55-24.6,55-55l0,0C115,29.6,90.4,5,60,5L60,5z"/>
	</g>
</a>
<path class="st1" d="M74,94.8H46c-2.2,0-4-1.8-4-4v-62c0-2.2,1.8-4,4-4h28c2.2,0,4,1.8,4,4v62C78,93,76.2,94.8,74,94.8z"/>
<polygon class="st2 star2 ani-duration2" points="81,44.3 98.4,28.2 96.6,51.8 120,55.4 100.5,68.7 112.3,89.2 89.7,82.3 81,104.3 72.3,82.3 49.7,89.2 
	61.5,68.7 42,55.4 65.4,51.8 63.6,28.2 "/>
<polygon class="st2 star3 ani-duration1" points="50.4,43.4 67.5,21.4 66.4,49.2 93.7,43.4 75,64 99.6,77 72,80.9 82.5,106.7 58.9,91.9 50.4,118.4 
	41.8,91.9 18.2,106.7 28.7,80.9 1.1,77 25.8,64 7.1,43.4 34.3,49.2 33.3,21.4 "/>
<circle class="st2 cicle2 ani-duration2" cx="30.3" cy="43.5" r="20.1"/>
<g class="cicle1 ani-duration1">
	<circle class="st3" cx="83.2" cy="41.1" r="25.1"/>
	<line class="st3" x1="62.1" y1="27.4" x2="62.1" y2="54.5"/>
	<line class="st3" x1="68.1" y1="21.1" x2="68.1" y2="60.9"/>
	<line class="st3" x1="74.1" y1="17.8" x2="74.1" y2="64.5"/>
	<line class="st3" x1="80.2" y1="16" x2="80.2" y2="65.6"/>
	<line class="st3" x1="86.2" y1="16" x2="86.2" y2="65.6"/>
	<line class="st3" x1="92.2" y1="17.8" x2="92.2" y2="64.5"/>
	<line class="st3" x1="98.2" y1="21.1" x2="98.2" y2="60.9"/>
	<line class="st3" x1="104.3" y1="27.4" x2="104.3" y2="54.5"/>
</g>
<g class="star1 ani-duration2">
	<polygon class="st3" points="79.9,71.7 92.1,58.1 91.2,76.4 109.4,75.4 95.9,87.7 109.4,99.9 91.2,99 92.1,117.2 79.9,103.7 
		67.6,117.2 68.6,99 50.3,99.9 63.9,87.7 50.3,75.4 68.6,76.4 67.6,58.1 	"/>
	<line class="st3" x1="67.9" y1="64.3" x2="73.2" y2="64.3"/>
	<line class="st3" x1="68.4" y1="72.1" x2="91.4" y2="72.1"/>
	<line class="st3" x1="55.3" y1="79.9" x2="104.5" y2="79.9"/>
	<line class="st3" x1="63.9" y1="87.7" x2="95.9" y2="87.7"/>
	<line class="st3" x1="55.3" y1="95.5" x2="104.5" y2="95.5"/>
	<line class="st3" x1="68.4" y1="103.2" x2="91.4" y2="103.2"/>
	<line class="st3" x1="67.9" y1="111" x2="73.2" y2="111"/>
	<line class="st3" x1="86.5" y1="64.3" x2="91.8" y2="64.3"/>
	<line class="st3" x1="86.5" y1="111" x2="91.8" y2="111"/>
</g>
<g class="star2 ani-duration1">
	<polygon class="st3" points="50.8,22.7 75.8,4.4 72.5,35.2 100.8,47.7 72.5,60.2 75.8,91 50.8,72.7 25.8,91 29.2,60.2 0.8,47.7 
		29.2,35.2 25.8,4.4 	"/>
	<line class="st3" x1="71" y1="7.9" x2="75" y2="11.9"/>
	<line class="st3" x1="66.4" y1="11.3" x2="74.2" y2="19.2"/>
	<line class="st3" x1="61.7" y1="14.7" x2="73.4" y2="26.4"/>
	<line class="st3" x1="89.9" y1="42.8" x2="96.5" y2="49.5"/>
	<line class="st3" x1="57.1" y1="18.1" x2="72.6" y2="33.6"/>
	<line class="st3" x1="75.4" y1="36.4" x2="91" y2="52"/>
	<line class="st3" x1="52.5" y1="21.5" x2="85.4" y2="54.5"/>
	<line class="st3" x1="31.4" y1="8.4" x2="79.9" y2="56.9"/>
	<line class="st3" x1="26.6" y1="11.7" x2="74.3" y2="59.3"/>
	<line class="st3" x1="27.6" y1="20.7" x2="73.1" y2="66.3"/>
	<line class="st3" x1="28.6" y1="29.7" x2="74" y2="75.2"/>
	<line class="st3" x1="27" y1="36.1" x2="75.1" y2="84.3"/>
	<line class="st3" x1="21.4" y1="38.6" x2="68.2" y2="85.4"/>
	<line class="st3" x1="15.8" y1="41.1" x2="48.9" y2="74.1"/>
	<line class="st3" x1="10.3" y1="43.5" x2="25.1" y2="58.4"/>
	<line class="st3" x1="4.7" y1="46" x2="10.8" y2="52.1"/>
	<line class="st3" x1="29" y1="62.3" x2="44.2" y2="77.5"/>
	<line class="st3" x1="28.4" y1="69.7" x2="39.6" y2="80.9"/>
	<line class="st3" x1="27.4" y1="76.7" x2="35" y2="84.3"/>
	<line class="st3" x1="26.6" y1="83.9" x2="30.3" y2="87.7"/>
</g>
</svg>
