<?xml version="1.0" encoding="utf-8"?>
<svg version="1.1" id="pb-musiclibrary" xmlns="http://www.w3.org/2000/svg" xmlns:xlink="http://www.w3.org/1999/xlink" x="0px" y="0px"
	 viewBox="0 0 120 120" style="enable-background:new 0 0 120 120;" xml:space="preserve">
<a href="http://catalog.patternbased.com/" target="_blank">
<style type="text/css">
	.ml-st0{fill:#F6F6F6;}
  svg:hover .ml-st0{fill:#BDBDBD;}

	.ml-st1{fill:#F6F6F6;stroke:#000000;stroke-miterlimit:10;}
	.ml-st2{fill:none;stroke:#000000;stroke-miterlimit:10;}
	.ml-st3{fill:none;stroke:#000000;stroke-miterlimit:10;}
	.ml-st4{stroke:#000000;stroke-miterlimit:10;}
	.ml-st5{fill:none;stroke:#000000;stroke-linecap:square;stroke-miterlimit:10;}
  #tape01, #tape02{
  animation-duration: 4s;
  animation-iteration-count:infinite;
  animation-timing-function: ease-in-out;
  animation-play-state: running;}
  svg:hover #tape01, svg:hover #tape02 {
  animation-play-state: paused;}
  #tape01, #tape02 {animation-name:tape-spinning;
    animation-timing-function: linear;}
  #tape01 {  transform-origin:36.5px 37.5px;}
  #tape02 {  transform-origin:82.5px 37.5px;}
  @keyframes tape-spinning {
    0% {transform: rotate(0deg)}
    100% {transform: rotate(360deg)}
    }
</style>
<g>
	<path class="ml-st0" d="M15,114.5c-5.24,0-9.5-4.26-9.5-9.5V15c0-5.24,4.26-9.5,9.5-9.5h90c5.24,0,9.5,4.26,9.5,9.5v90
		c0,5.24-4.26,9.5-9.5,9.5H15z"/>
	<path d="M105,6c4.96,0,9,4.04,9,9v90c0,4.96-4.04,9-9,9H15c-4.96,0-9-4.04-9-9V15c0-4.96,4.04-9,9-9H105 M105,5H15
		C9.48,5,5,9.48,5,15v90c0,5.52,4.48,10,10,10h90c5.52,0,10-4.48,10-10V15C115,9.48,110.52,5,105,5L105,5z"/>
</g>
<line class="ml-st1" x1="5" y1="81.7" x2="115" y2="81.7"/>
<line class="ml-st2" x1="105.5" y1="81.7" x2="105.5" y2="114.2"/>
<line class="ml-st2" x1="95.5" y1="81.7" x2="95.5" y2="114.2"/>
<line class="ml-st2" x1="85.5" y1="81.7" x2="85.5" y2="114.2"/>
<line class="ml-st2" x1="75.5" y1="81.7" x2="75.5" y2="114.2"/>
<line class="ml-st2" x1="65.5" y1="81.7" x2="65.5" y2="114.2"/>
<line class="ml-st2" x1="55.5" y1="81.7" x2="55.5" y2="114.2"/>
<line class="ml-st2" x1="45.5" y1="81.7" x2="45.5" y2="114.2"/>
<line class="ml-st2" x1="35.5" y1="81.7" x2="35.5" y2="114.2"/>
<line class="ml-st2" x1="25.5" y1="81.7" x2="25.5" y2="114.2"/>
<line class="ml-st2" x1="15.5" y1="81.7" x2="15.5" y2="114.2"/>
<circle cx="100.5" cy="67.5" r="4.5"/>
<circle cx="20.5" cy="67.5" r="4.5"/>
<line class="ml-st2" x1="22" y1="86.5" x2="19" y2="86.5"/>
<rect x="19.5" y="91.5" width="2" height="19"/>
<line class="ml-st2" x1="12" y1="86.5" x2="9" y2="86.5"/>
<rect x="9.5" y="91.5" width="2" height="19"/>
<line class="ml-st2" x1="32" y1="86.5" x2="29" y2="86.5"/>
<rect x="29.5" y="91.5" width="2" height="19"/>
<line class="ml-st2" x1="42" y1="86.5" x2="39" y2="86.5"/>
<rect x="39.5" y="91.5" width="2" height="19"/>
<line class="ml-st2" x1="52" y1="86.5" x2="49" y2="86.5"/>
<rect x="49.5" y="91.5" width="2" height="19"/>
<line class="ml-st2" x1="62" y1="86.5" x2="59" y2="86.5"/>
<rect x="59.5" y="91.5" width="2" height="19"/>
<line class="ml-st2" x1="72" y1="86.5" x2="69" y2="86.5"/>
<rect x="69.5" y="91.5" width="2" height="19"/>
<line class="ml-st2" x1="82" y1="86.5" x2="79" y2="86.5"/>
<rect x="79.5" y="91.5" width="2" height="19"/>
<line class="ml-st2" x1="92" y1="86.5" x2="89" y2="86.5"/>
<rect x="89.5" y="91.5" width="2" height="19"/>
<line class="ml-st2" x1="102" y1="86.5" x2="99" y2="86.5"/>
<rect x="99.5" y="91.5" width="2" height="19"/>
<line class="ml-st2" x1="112" y1="86.5" x2="109" y2="86.5"/>
<rect x="109.5" y="91.5" width="2" height="19"/>
<line class="ml-st2" x1="71" y1="69.5" x2="71" y2="66.5"/>
<rect x="55.5" y="58.5" transform="matrix(-1.836970e-16 1 -1 -1.836970e-16 124.5 11.5)" width="2" height="19"/>
<rect x="54.5" y="51.5" transform="matrix(-1.836970e-16 1 -1 -1.836970e-16 127.5 8.5)" class="ml-st3" width="10" height="33"/>
<line class="ml-st5" x1="42.5" y1="72.5" x2="21" y2="50.22"/>
<line class="ml-st5" x1="76.5" y1="72.5" x2="98" y2="50.22"/>
<line class="ml-st1" x1="36" y1="17.5" x2="82" y2="17.5"/>
<g id="tape01">
	<circle class="ml-st3" cx="36.5" cy="37.5" r="20"/>
	<g>
		<circle class="ml-st3" cx="36.5" cy="37.5" r="8"/>
		<line class="ml-st3" x1="34.5" y1="17.5" x2="34.5" y2="30.09"/>
		<line class="ml-st3" x1="38.5" y1="17.5" x2="38.5" y2="30.09"/>
		<line class="ml-st3" x1="56.5" y1="35.5" x2="43.91" y2="35.5"/>
		<line class="ml-st3" x1="56.5" y1="39.5" x2="43.91" y2="39.5"/>
		<line class="ml-st3" x1="38.5" y1="57.5" x2="38.5" y2="44.91"/>
		<line class="ml-st3" x1="34.5" y1="57.5" x2="34.5" y2="44.91"/>
		<line class="ml-st3" x1="16.5" y1="39.5" x2="29.09" y2="39.5"/>
		<line class="ml-st3" x1="16.5" y1="35.5" x2="29.09" y2="35.5"/>
	</g>
</g>
<g id="tape02">
	<circle class="ml-st3" cx="82.5" cy="37.5" r="20"/>
	<g>
		<circle class="ml-st3" cx="82.5" cy="37.5" r="8"/>
		<line class="ml-st3" x1="95.23" y1="21.94" x2="86.33" y2="30.84"/>
		<line class="ml-st3" x1="98.06" y1="24.77" x2="89.16" y2="33.67"/>
		<line class="ml-st3" x1="98.06" y1="50.23" x2="89.16" y2="41.33"/>
		<line class="ml-st3" x1="95.23" y1="53.06" x2="86.33" y2="44.16"/>
		<line class="ml-st3" x1="69.77" y1="53.06" x2="78.67" y2="44.16"/>
		<line class="ml-st3" x1="66.94" y1="50.23" x2="75.84" y2="41.33"/>
		<line class="ml-st3" x1="66.94" y1="24.77" x2="75.84" y2="33.67"/>
		<line class="ml-st3" x1="69.77" y1="21.94" x2="78.67" y2="30.84"/>
	</g>
</g>
<rect id="blk-rct02" x="35.5" y="81.5" width="10" height="33"/>
</a>
</svg>
