<?xml version="1.0" encoding="utf-8"?>
<svg version="1.1" id="pb-datavisualization" xmlns="http://www.w3.org/2000/svg" xmlns:xlink="http://www.w3.org/1999/xlink" x="0px" y="0px"
	 viewBox="0 0 120 120" style="enable-background:new 0 0 120 120;" xml:space="preserve">
<a href="/dataviz" target="_parent">
<style type="text/css">
	.dtv-st0{fill:none;}
	.dtv-st1{fill:#000000;}
	.dtv-st2{fill:#F6F6F6;}
  svg:hover .dtv-st2 {fill:#bdbdbd;}
	.dtv-st3{fill:#808080;}
	.dtv-st4{fill:url(#dtv-SVGID_1_);stroke:#000000;stroke-miterlimit:10;}
	.dtv-st5{stroke:#000000;stroke-miterlimit:10;}
	.dtv-st6{fill:url(#dtv-SVGID_2_);stroke:#000000;stroke-miterlimit:10;}
	.dtv-st7{fill:url(#dtv-SVGID_3_);stroke:#000000;stroke-miterlimit:10;}
	.dtv-st8{fill:url(#dtv-SVGID_4_);stroke:#000000;stroke-miterlimit:10;}
	.dtv-st9{fill:url(#dtv-SVGID_5_);stroke:#000000;stroke-miterlimit:10;}
	.dtv-st10{fill:url(#dtv-SVGID_6_);stroke:#000000;stroke-miterlimit:10;}
	.dtv-st11{fill:url(#dtv-SVGID_7_);stroke:#000000;stroke-miterlimit:10;}
  #grey-spct, #dot-spct, #blk-spct {
  animation-iteration-count:infinite;
  transform-origin:50% 50%;
  animation-timing-function: linear;
  animation-play-state: running;}
#grey-spct, #blk-spct {animation-duration: 12s;}
#dot-spct {animation-duration: 28s;}
  svg:hover #grey-spct, svg:hover #dot-spct, svg:hover #blk-spct {animation-play-state: paused;}
  #grey-spct {animation-name:grey-spct;}
  #dot-spct {animation-name:dot-spct;}
  #blk-spct {animation-name:blk-spct;}
  @keyframes grey-spct {
    0% {transform: rotate(0deg);}
    100% {transform: rotate(360deg);}}
  @keyframes blk-spct {
    0% {transform: rotate(360deg);}
    100% {transform: rotate(0deg);}}
  @keyframes dot-spct {
    0% {transform: rotate(0deg) scale(0.9);}
    100% {transform: rotate(360deg) scale(0.9);}}
  </style>

<pattern  width="28.8" height="28.8" patternUnits="userSpaceOnUse" id="_x31_0_dpi_40_x25_" viewBox="2.88 -31.68 28.8 28.8" style="overflow:visible;">
	<g>
		<rect x="2.88" y="-31.68" class="dtv-st0" width="28.8" height="28.8"/>
		<g>
			<path class="dtv-st1" d="M31.68,0c1.59,0,2.88-1.29,2.88-2.88c0-1.59-1.29-2.88-2.88-2.88c-1.59,0-2.88,1.29-2.88,2.88
				C28.8-1.29,30.09,0,31.68,0z"/>
			<path class="dtv-st1" d="M17.28,0c1.59,0,2.88-1.29,2.88-2.88c0-1.59-1.29-2.88-2.88-2.88c-1.59,0-2.88,1.29-2.88,2.88
				C14.4-1.29,15.69,0,17.28,0z"/>
			<path class="dtv-st1" d="M31.68-14.4c1.59,0,2.88-1.29,2.88-2.88s-1.29-2.88-2.88-2.88c-1.59,0-2.88,1.29-2.88,2.88
				S30.09-14.4,31.68-14.4z"/>
			<path class="dtv-st1" d="M17.28-14.4c1.59,0,2.88-1.29,2.88-2.88s-1.29-2.88-2.88-2.88c-1.59,0-2.88,1.29-2.88,2.88
				S15.69-14.4,17.28-14.4z"/>
			<path class="dtv-st1" d="M10.08-7.2c1.59,0,2.88-1.29,2.88-2.88c0-1.59-1.29-2.88-2.88-2.88c-1.59,0-2.88,1.29-2.88,2.88
				C7.2-8.49,8.49-7.2,10.08-7.2z"/>
			<path class="dtv-st1" d="M24.48-7.2c1.59,0,2.88-1.29,2.88-2.88c0-1.59-1.29-2.88-2.88-2.88c-1.59,0-2.88,1.29-2.88,2.88
				C21.6-8.49,22.89-7.2,24.48-7.2z"/>
			<path class="dtv-st1" d="M10.08-21.6c1.59,0,2.88-1.29,2.88-2.88c0-1.59-1.29-2.88-2.88-2.88c-1.59,0-2.88,1.29-2.88,2.88
				C7.2-22.89,8.49-21.6,10.08-21.6z"/>
			<path class="dtv-st1" d="M24.48-21.6c1.59,0,2.88-1.29,2.88-2.88c0-1.59-1.29-2.88-2.88-2.88c-1.59,0-2.88,1.29-2.88,2.88
				C21.6-22.89,22.89-21.6,24.48-21.6z"/>
		</g>
		<g>
			<path class="dtv-st1" d="M2.88,0c1.59,0,2.88-1.29,2.88-2.88c0-1.59-1.29-2.88-2.88-2.88C1.29-5.76,0-4.47,0-2.88
				C0-1.29,1.29,0,2.88,0z"/>
			<path class="dtv-st1" d="M2.88-14.4c1.59,0,2.88-1.29,2.88-2.88s-1.29-2.88-2.88-2.88C1.29-20.16,0-18.87,0-17.28
				S1.29-14.4,2.88-14.4z"/>
		</g>
		<g>
			<path class="dtv-st1" d="M31.68-28.8c1.59,0,2.88-1.29,2.88-2.88c0-1.59-1.29-2.88-2.88-2.88c-1.59,0-2.88,1.29-2.88,2.88
				C28.8-30.09,30.09-28.8,31.68-28.8z"/>
			<path class="dtv-st1" d="M17.28-28.8c1.59,0,2.88-1.29,2.88-2.88c0-1.59-1.29-2.88-2.88-2.88c-1.59,0-2.88,1.29-2.88,2.88
				C14.4-30.09,15.69-28.8,17.28-28.8z"/>
		</g>
		<g>
			<path class="dtv-st1" d="M2.88-28.8c1.59,0,2.88-1.29,2.88-2.88c0-1.59-1.29-2.88-2.88-2.88C1.29-34.56,0-33.27,0-31.68
				C0-30.09,1.29-28.8,2.88-28.8z"/>
		</g>
	</g>
</pattern>
<g>
	<circle class="dtv-st2" cx="60" cy="60" r="54.5"/>
	<path d="M60,6c29.78,0,54,24.22,54,54c0,29.78-24.22,54-54,54C30.22,114,6,89.78,6,60C6,30.22,30.22,6,60,6 M60,5L60,5
		C29.62,5,5,29.62,5,60v0c0,30.38,24.62,55,55,55h0c30.38,0,55-24.62,55-55v0C115,29.62,90.38,5,60,5L60,5z"/>
</g>
<g id="grey-spct">
	<polygon class="dtv-st3" points="68.87,8.95 53.87,26.3 39.32,24.5 37.25,41.13 16,43 27.8,60.12 27.13,72.04 26.08,88.49 42.64,89.94 
		56.2,81.01 67,112 78.81,92.9 97,92 93.4,72.59 101.01,60.12 97.97,46.28 102,27 73.25,36.93 	"/>
</g>
<g id="dot-spct">
	<polygon class="dtv-st2" points="67.77,15.56 51.4,11.73 40.77,26.9 25.3,31.02 29.42,48.97 10.83,60.07 29.42,71.18 30.58,84.7 
		35.38,102.59 54.29,92.05 68.45,108.42 80.73,96.11 89.27,84.7 90.43,71.18 109.02,60.07 95.92,46.97 94.55,31.02 79.08,26.9 	"/>
	<pattern  id="dtv-SVGID_1_" xlink:href="#_x31_0_dpi_40_x25_" patternTransform="matrix(0.5 0 0 0.5 -4068.2717 -3997.4551)">
	</pattern>
	<polygon class="dtv-st4" points="67.77,15.56 51.4,11.73 40.77,26.9 25.3,31.02 29.42,48.97 10.83,60.07 29.42,71.18 30.58,84.7 
		35.38,102.59 54.29,92.05 68.45,108.42 80.73,96.11 89.27,84.7 90.43,71.18 109.02,60.07 95.92,46.97 94.55,31.02 79.08,26.9 	"/>
</g>
<polygon id="blk-spct" class="dtv-st5" points="64.84,32.57 54.5,23.5 47.98,38.9 38.66,42.1 37.32,51.6 24.45,60.07 40.58,67.01 38.66,77.9 
	44.56,86.75 55.57,85.51 65.84,93.88 72.56,81.75 83.66,79.85 83.64,68.55 90.89,60 82.89,51.6 83.66,40.15 71.03,40.97 "/>
<g>
	<g>
		<circle class="dtv-st2" cx="60" cy="60" r="19.5"/>
		<path d="M60,41c10.48,0,19,8.52,19,19s-8.52,19-19,19s-19-8.52-19-19S49.52,41,60,41 M60,40c-11.05,0-20,8.95-20,20s8.95,20,20,20
			s20-8.95,20-20S71.05,40,60,40L60,40z"/>
	</g>
	<pattern  id="dtv-SVGID_2_" xlink:href="#_x31_0_dpi_40_x25_" patternTransform="matrix(0.5 0 0 0.5 -4068.7717 -3996.9551)">
	</pattern>
	<line class="dtv-st6" x1="60" y1="40" x2="60" y2="60"/>
	
		<pattern  id="dtv-SVGID_3_" xlink:href="#_x31_0_dpi_40_x25_" patternTransform="matrix(-0.26 0.4271 -0.4271 -0.26 -13679.7363 -6663.6963)">
	</pattern>
	<line class="dtv-st7" x1="77.08" y1="70.4" x2="60" y2="60"/>
	
		<pattern  id="dtv-SVGID_4_" xlink:href="#_x31_0_dpi_40_x25_" patternTransform="matrix(-0.4553 -0.2067 0.2067 -0.4553 -10153.8193 -13366.0137)">
	</pattern>
	<line class="dtv-st8" x1="51.73" y1="78.21" x2="60" y2="60"/>
	
		<pattern  id="dtv-SVGID_5_" xlink:href="#_x31_0_dpi_40_x25_" patternTransform="matrix(-0.2774 -0.416 0.416 -0.2774 -7026.2832 -13627.417)">
	</pattern>
	<line class="dtv-st9" x1="43.36" y1="71.1" x2="60" y2="60"/>
	
		<pattern  id="dtv-SVGID_6_" xlink:href="#_x31_0_dpi_40_x25_" patternTransform="matrix(-0.0706 -0.495 0.495 -0.0706 -4708.9604 -12611.8389)">
	</pattern>
	<line class="dtv-st10" x1="40.2" y1="62.83" x2="60" y2="60"/>
	
		<pattern  id="dtv-SVGID_7_" xlink:href="#_x31_0_dpi_40_x25_" patternTransform="matrix(0.1076 -0.4883 0.4883 0.1076 -3309.5964 -11108.6172)">
	</pattern>
	<line class="dtv-st11" x1="40.47" y1="55.7" x2="60" y2="60"/>
</g>
</a>
</svg>
