<?xml version="1.0" encoding="utf-8"?>
<svg version="1.1" id="pb-creativedirection" xmlns="http://www.w3.org/2000/svg" xmlns:xlink="http://www.w3.org/1999/xlink" x="0px" y="0px"
	 viewBox="0 0 120 120" style="enable-background:new 0 0 120 120;" xml:space="preserve">
<a href="/category?categ=visualdesign" target="_parent">
<style type="text/css">
	.crd-st0{fill:none;}
	.crd-st1{fill:#000000;}
	.crd-st2{fill:#F6F6F6;}
  svg:hover .crd-st2{fill:#BDBDBD;}
	.crd-st3{fill:none;stroke:#000000;stroke-miterlimit:10;}
	.crd-st11{clip-path:url(#crd-SVGID_2_);}
	.crd-st12{fill:url(#crd-SVGID_3_);}
	.crd-st13{clip-path:url(#crd-SVGID_2_);fill:none;}
	.crd-st14{fill:#F6F6F6;stroke:#000000;stroke-miterlimit:10;}
.color-boxes, #font-apr-1, #font-apr-2, #font-apr-3, #font-apr-4, #color-box-01, #color-box-02, #color-box-03, #color-box-04, .droping-box, #dot-rtcgl {animation-duration: 6s;
  animation-iteration-count:infinite;
  animation-timing-function: ease-in-out;
  animation-play-state: running;}
svg:hover .color-boxes, svg:hover #font-apr-1, svg:hover #font-apr-2, svg:hover #font-apr-3, svg:hover #font-apr-4, svg:hover #color-box-01, svg:hover #color-box-02, svg:hover #color-box-03, svg:hover #color-box-04, svg:hover .droping-box, svg:hover #dot-rtcgl {animation-play-state: paused;}
 .color-boxes {animation-name: color-boxes;}
 #font-apr-1 {animation-name: font-apr-1;}
 #font-apr-2 {animation-name: font-apr-2;}
 #font-apr-3 {animation-name: font-apr-3;}
 #font-apr-4 {animation-name: font-apr-4;}
 #color-box-01, #color-box-02, #color-box-03, #color-box-04 {animation-name: color-box-01;}
.droping-box {animation-name: droping-box;}
 #dot-rtcgl {animation-name: dot-rtcgl;}
  @keyframes font-apr-1 {
    0%, 39% {opacity:0;}
    40%, 89% {opacity:1;}
    90%, 100% {opacity:0;}}
  @keyframes font-apr-2 {
    0%, 41% {opacity:0;}
    42%, 91% {opacity:1;}
    92%, 100% {opacity:0;}}
  @keyframes font-apr-3 {
    0%, 37% {opacity:1;}
    38%, 87% {opacity:0;}
    88%, 100% {opacity:1;}}
  @keyframes font-apr-4 {
    0%, 39% {opacity:1;}
    40%, 89% {opacity:0;}
    90%, 100% {opacity:1;}}
  @keyframes color-box-01 {
    0%, 35% {opacity:0;}
    36%, 86% {opacity:1;}
    88%, 100% {opacity:0;}}
  @keyframes color-boxes {
    0%, 35% {opacity:1;}
    36%, 85% {opacity:0;}
    87%, 100% {opacity:1;}}
  @keyframes droping-box {
    0%, 36% {transform: translate(0,0);}
    40%, 82% {transform: translate(0,53px);}
    85%, 100% {transform: translate(0,0);}}
  @keyframes dot-rtcgl {
    0%, 36% {fill:url(#crd-SVGID_3_);}
    40%, 82% {fill:#000000;}
    86%, 100% {fill:url(#crd-SVGID_3_);}}
</style>
<pattern  width="28.8" height="28.8" patternUnits="userSpaceOnUse" id="_x31_0_dpi_40_x25_" viewBox="2.88 -31.68 28.8 28.8" style="overflow:visible;">
	<g>
		<rect x="2.88" y="-31.68" class="crd-st0" width="28.8" height="28.8"/>
		<g>
			<path class="crd-st1" d="M31.68,0c1.59,0,2.88-1.29,2.88-2.88c0-1.59-1.29-2.88-2.88-2.88c-1.59,0-2.88,1.29-2.88,2.88
				C28.8-1.29,30.09,0,31.68,0z"/>
			<path class="crd-st1" d="M17.28,0c1.59,0,2.88-1.29,2.88-2.88c0-1.59-1.29-2.88-2.88-2.88c-1.59,0-2.88,1.29-2.88,2.88
				C14.4-1.29,15.69,0,17.28,0z"/>
			<path class="crd-st1" d="M31.68-14.4c1.59,0,2.88-1.29,2.88-2.88s-1.29-2.88-2.88-2.88c-1.59,0-2.88,1.29-2.88,2.88
				S30.09-14.4,31.68-14.4z"/>
			<path class="crd-st1" d="M17.28-14.4c1.59,0,2.88-1.29,2.88-2.88s-1.29-2.88-2.88-2.88c-1.59,0-2.88,1.29-2.88,2.88
				S15.69-14.4,17.28-14.4z"/>
			<path class="crd-st1" d="M10.08-7.2c1.59,0,2.88-1.29,2.88-2.88c0-1.59-1.29-2.88-2.88-2.88c-1.59,0-2.88,1.29-2.88,2.88
				C7.2-8.49,8.49-7.2,10.08-7.2z"/>
			<path class="crd-st1" d="M24.48-7.2c1.59,0,2.88-1.29,2.88-2.88c0-1.59-1.29-2.88-2.88-2.88c-1.59,0-2.88,1.29-2.88,2.88
				C21.6-8.49,22.89-7.2,24.48-7.2z"/>
			<path class="crd-st1" d="M10.08-21.6c1.59,0,2.88-1.29,2.88-2.88c0-1.59-1.29-2.88-2.88-2.88c-1.59,0-2.88,1.29-2.88,2.88
				C7.2-22.89,8.49-21.6,10.08-21.6z"/>
			<path class="crd-st1" d="M24.48-21.6c1.59,0,2.88-1.29,2.88-2.88c0-1.59-1.29-2.88-2.88-2.88c-1.59,0-2.88,1.29-2.88,2.88
				C21.6-22.89,22.89-21.6,24.48-21.6z"/>
		</g>
		<g>
			<path class="crd-st1" d="M2.88,0c1.59,0,2.88-1.29,2.88-2.88c0-1.59-1.29-2.88-2.88-2.88C1.29-5.76,0-4.47,0-2.88
				C0-1.29,1.29,0,2.88,0z"/>
			<path class="crd-st1" d="M2.88-14.4c1.59,0,2.88-1.29,2.88-2.88s-1.29-2.88-2.88-2.88C1.29-20.16,0-18.87,0-17.28
				S1.29-14.4,2.88-14.4z"/>
		</g>
		<g>
			<path class="crd-st1" d="M31.68-28.8c1.59,0,2.88-1.29,2.88-2.88c0-1.59-1.29-2.88-2.88-2.88c-1.59,0-2.88,1.29-2.88,2.88
				C28.8-30.09,30.09-28.8,31.68-28.8z"/>
			<path class="crd-st1" d="M17.28-28.8c1.59,0,2.88-1.29,2.88-2.88c0-1.59-1.29-2.88-2.88-2.88c-1.59,0-2.88,1.29-2.88,2.88
				C14.4-30.09,15.69-28.8,17.28-28.8z"/>
		</g>
		<g>
			<path class="crd-st1" d="M2.88-28.8c1.59,0,2.88-1.29,2.88-2.88c0-1.59-1.29-2.88-2.88-2.88C1.29-34.56,0-33.27,0-31.68
				C0-30.09,1.29-28.8,2.88-28.8z"/>
		</g>
	</g>
</pattern>
<g>
	<circle cx="60" cy="60" r="55"/>
	<path d="M60,6c29.78,0,54,24.22,54,54c0,29.78-24.22,54-54,54C30.22,114,6,89.78,6,60C6,30.22,30.22,6,60,6 M60,5L60,5
		C29.62,5,5,29.62,5,60v0c0,30.38,24.62,55,55,55h0c30.38,0,55-24.62,55-55v0C115,29.62,90.38,5,60,5L60,5z"/>
</g>
<g>
	<circle class="crd-st2" cx="60" cy="60" r="55"/>
	<path d="M60,6c29.78,0,54,24.22,54,54c0,29.78-24.22,54-54,54C30.22,114,6,89.78,6,60C6,30.22,30.22,6,60,6 M60,5L60,5
		C29.62,5,5,29.62,5,60v0c0,30.38,24.62,55,55,55h0c30.38,0,55-24.62,55-55v0C115,29.62,90.38,5,60,5L60,5z"/>
</g>
<rect x="55.5" y="37.5" class="crd-st3 droping-box" width="14" height="14"/>
<line class="crd-st3 droping-box" x1="69.42" y1="37.42" x2="55.92" y2="50.92"/>
<line class="crd-st3 droping-box" x1="55.5" y1="37.5" x2="69.5" y2="51.5"/>
<rect x="34.5" y="37.5" class="crd-st3 droping-box" width="14" height="14"/>
<line class="crd-st3 droping-box" x1="48.42" y1="37.42" x2="34.92" y2="50.92"/>
<line class="crd-st3 droping-box" x1="34.5" y1="37.5" x2="48.5" y2="51.5"/>
<rect x="55.5" y="17.5" class="crd-st3" width="14" height="14"/>
<line class="crd-st3" x1="69.42" y1="17.42" x2="55.92" y2="30.92"/>
<line class="crd-st3" x1="55.5" y1="17.5" x2="69.5" y2="31.5"/>
<rect x="34.5" y="17.5" class="crd-st3" width="14" height="14"/>
<line class="crd-st3" x1="48.42" y1="17.42" x2="34.92" y2="30.92"/>
<line class="crd-st3" x1="34.5" y1="17.5" x2="48.5" y2="31.5"/>
<g class="color-boxes"><g>
	<rect x="57" y="82.5" class="crd-st2" width="12" height="11"/>
	<path d="M68.5,83v10h-11V83H68.5 M69.5,82h-13v12h13V82L69.5,82z"/>
</g>
<g>
	<rect x="45.5" y="82.5" width="11" height="11"/>
	<path d="M56,83v10H46V83H56 M57,82H45v12h12V82L57,82z"/>
</g>
<g>
	<rect x="32.5" y="82.5" class="crd-st2" width="12" height="11"/>
	<path d="M44,83v10H33V83H44 M45,82H32v12h13V82L45,82z"/>
</g>
<g>
	<rect x="44.5" y="93.5" class="crd-st2" width="12.5" height="11"/>
	<path d="M56.5,94v10H45V94H56.5 M57.5,93H44v12h13.5V93L57.5,93z"/>
</g>
<g>
	<rect x="32.5" y="93.5" width="11" height="11"/>
	<path d="M43,94v10H33V94H43 M44,93H32v12h12V93L44,93z"/>
</g>
<g>
	<rect x="57" y="93.5" class="crd-st2" width="12" height="11"/>
	<path d="M68.5,94v10h-11V94H68.5 M69.5,93h-13v12h13V93L69.5,93z"/>
  </g></g>
<g>
	<path id="font-apr-1" d="M96.47,69.47h-5l-0.85-5.71h-6.08l-0.85,5.71h-4.54l5.04-31.5h7.24L96.47,69.47z M85.17,59.48h4.77l-2.39-15.93
		L85.17,59.48z"/>
</g>
<g>
	<path id="font-apr-2" d="M105.95,56.89l6.03,12.93h-1.4l-2.03-4.25h-5.57l-2.01,4.25h-1.44l6.11-12.93H105.95z M105.78,59.64l-2.22,4.68h4.42
		L105.78,59.64z"/>
</g>
<g>
	<path  id="font-apr-3" d="M96.4,65.4c0.14,0.46,0.31,0.83,0.49,1.13c0.18,0.3,0.4,0.55,0.67,0.76c0.26,0.21,0.58,0.36,0.95,0.45s0.82,0.17,1.35,0.21
		l0.07,0.14l-0.25,1.48c-0.5,0-0.98-0.01-1.44-0.04c-0.41-0.02-0.83-0.04-1.26-0.05c-0.43-0.01-0.8-0.02-1.12-0.02
		c-0.7,0-1.36,0.02-2,0.05c-0.64,0.04-1.21,0.08-1.71,0.13c-0.6,0.07-1.15,0.13-1.66,0.18l-0.11-0.25l0.14-1.4
		c1.25-0.1,2.09-0.24,2.54-0.43c0.44-0.19,0.67-0.5,0.67-0.94c0-0.46-0.11-1.03-0.32-1.73l-1.19-3.92c-0.22,0-0.49-0.01-0.81-0.02
		c-0.32-0.01-0.66-0.02-1.01-0.02s-0.7,0-1.04,0c-0.35,0-0.64,0-0.88,0c-0.7,0-1.42,0.04-2.18,0.11c-0.76,0.07-1.34,0.13-1.75,0.18
		l-1.33,3.74c-0.22,0.65-0.32,1.12-0.32,1.4c0,0.53,0.17,0.91,0.5,1.13c0.34,0.23,0.89,0.34,1.66,0.34h2.05l0.07,0.14l-0.22,1.55
		c-0.53-0.02-1.07-0.06-1.62-0.11c-0.48-0.05-1.01-0.08-1.6-0.11c-0.59-0.02-1.18-0.04-1.78-0.04c-0.43,0-0.88,0.01-1.35,0.02
		c-0.47,0.01-0.89,0.03-1.28,0.05c-0.46,0.02-0.9,0.04-1.33,0.04l0.29-1.69c0.67-0.07,1.21-0.3,1.6-0.68
		c0.4-0.38,0.8-1.08,1.21-2.09l7.02-18.4l2.27-0.61h0.29c0.6,2.18,1.21,4.39,1.84,6.62c0.26,0.96,0.55,1.97,0.86,3.02
		s0.64,2.13,0.97,3.22c0.34,1.09,0.68,2.18,1.03,3.28S96.06,64.39,96.4,65.4z M85.2,59.64h3.17c0.48,0,1.06-0.02,1.73-0.05
		c0.67-0.04,1.21-0.08,1.62-0.13l-2.84-9.43h-0.25L85.2,59.64z"/>
</g>
<g>
	<path  id="font-apr-4" d="M113.16,67.07c0.11,0.41,0.24,0.71,0.4,0.89c0.16,0.19,0.38,0.29,0.66,0.31l0.13,0.18l-0.14,1.42c-0.3,0-0.6-0.01-0.9-0.02
		c-0.25,0-0.53,0-0.83-0.01s-0.57-0.01-0.81-0.01c-0.43,0-0.85,0.01-1.26,0.02c-0.41,0.01-0.77,0.02-1.1,0.04
		c-0.38,0.01-0.74,0.02-1.08,0.04l-0.14-0.16l0.11-1.51c0.28-0.04,0.49-0.07,0.65-0.09c0.16-0.02,0.27-0.05,0.34-0.09
		s0.12-0.09,0.13-0.15c0.02-0.07,0.03-0.16,0.03-0.28c0-0.04,0-0.08-0.01-0.13c-0.01-0.05-0.02-0.12-0.03-0.19l-0.11-0.7
		c-0.24-0.01-0.49-0.02-0.75-0.03c-0.26-0.01-0.47-0.01-0.64-0.01c-0.2,0-0.43,0.01-0.69,0.03c-0.26,0.02-0.51,0.04-0.75,0.06
		l-0.18,0.81c-0.04,0.21-0.05,0.34-0.05,0.4c0,0.16,0.03,0.26,0.1,0.3c0.07,0.04,0.22,0.06,0.46,0.06h0.47l0.14,0.18l-0.14,1.46
		c-0.32,0-0.65-0.01-0.97-0.02c-0.28-0.01-0.58-0.02-0.9-0.03s-0.62-0.01-0.9-0.01s-0.56,0-0.85,0.01s-0.55,0.01-0.77,0.01H102
		l0.13-1.53c0.43-0.11,0.74-0.44,0.92-0.99l2.86-9.07l4.73-0.29l0.27,0.22c0.32,1.31,0.64,2.54,0.94,3.71
		c0.12,0.49,0.25,0.99,0.38,1.5s0.25,1,0.37,1.46s0.22,0.89,0.32,1.27C113,66.52,113.09,66.83,113.16,67.07z M106.95,64.41h0.92
		c0.13,0,0.28,0,0.44-0.01s0.33-0.02,0.5-0.03l-0.61-3.15h-0.4L106.95,64.41z"/>
</g>
<g>
	<defs>
		<path id="crd-SVGID_1_" d="M60,115L60,115C29.62,115,5,90.38,5,60v0C5,29.62,29.62,5,60,5h0c30.38,0,55,24.62,55,55v0
			C115,90.38,90.38,115,60,115z"/>
	</defs>
	<clipPath id="crd-SVGID_2_">
		<use xlink:href="#crd-SVGID_1_"  style="overflow:visible;"/>
	</clipPath>
	<g class="crd-st11">
		
			<pattern  id="crd-SVGID_3_" xlink:href="#_x31_0_dpi_40_x25_" patternTransform="matrix(0.1076 -0.4883 0.4883 0.1076 -3297.8804 -11133.1982)">
		</pattern>
		<rect x="3.5" y="60" class="crd-st12" id="dot-rtcgl" width="65.5" height="22.5"/>
		<path d="M68.5,60.5V82H4V60.5H68.5 M69.5,59.5H3V83h66.5V59.5L69.5,59.5z"/>
	</g>
	<rect x="78" y="76" class="crd-st11" width="39" height="6"/>
	<path class="crd-st13" d="M60,115L60,115C29.62,115,5,90.38,5,60v0C5,29.62,29.62,5,60,5h0c30.38,0,55,24.62,55,55v0
		C115,90.38,90.38,115,60,115z"/>
	<path class="crd-st13" d="M60,115L60,115C29.62,115,5,90.38,5,60v0C5,29.62,29.62,5,60,5h0c30.38,0,55,24.62,55,55v0
		C115,90.38,90.38,115,60,115z"/>
  </g>
<g class ="color-boxes">
<line class="crd-st14" x1="36" y1="83" x2="36" y2="93.5"/>
<line class="crd-st14" x1="39" y1="83" x2="39" y2="93.5"/>
<line class="crd-st14" x1="42" y1="83" x2="42" y2="93.5"/>
<line class="crd-st14" x1="60" y1="94" x2="60" y2="104.5"/>
<line class="crd-st14" x1="63" y1="94" x2="63" y2="104.5"/>
  <line class="crd-st14" x1="66" y1="94" x2="66" y2="104.5"/>
  </g>
<g>
	<rect x="34.5" y="37.5" width="14" id="color-box-03" height="14"/>
	<g>
		<path d="M48,38v13H35V38H48 M49,37H34v15h15V37L49,37z"/>
	</g>
</g>
<g>
	<rect x="55.5" y="37.5" id="color-box-04" class="crd-st2" width="14" height="14"/>
	<g>
		<path d="M69,38v13H56V38H69 M70,37H55v15h15V37L70,37z"/>
	</g>
</g>
<g>
	<rect x="55.5" y="17.5" width="14" height="14" id="color-box-02"/>
	<g>
		<path d="M69,18v13H56V18H69 M70,17H55v15h15V17L70,17z"/>
	</g>
</g>
<g id="color-box-01">
	<g>
		<rect x="34.5" y="17.5" class="crd-st2" width="14" height="14"/>
		<g>
			<path d="M48,18v13H35V18H48 M49,17H34v15h15V17L49,17z"/>
		</g>
	</g>
	<line class="crd-st14" x1="37" y1="17" x2="37" y2="31.5"/>
	<line class="crd-st14" x1="40" y1="17" x2="40" y2="31.5"/>
	<line class="crd-st14" x1="43" y1="17" x2="43" y2="31.5"/>
	<line class="crd-st14" x1="46" y1="17" x2="46" y2="31.5"/>
</g>
</a>
</svg>
