<?xml version="1.0" encoding="utf-8"?>
<!-- Generator: Adobe Illustrator 26.3.1, SVG Export Plug-In . SVG Version: 6.00 Build 0)  -->
<svg version="1.1" id="Layer_1" xmlns="http://www.w3.org/2000/svg" xmlns:xlink="http://www.w3.org/1999/xlink" x="0px" y="0px"
	 viewBox="0 0 30 30" style="enable-background:new 0 0 30 30;" xml:space="preserve">
<style type="text/css">
	.st0{fill:#FB3640;}
	.st1{enable-background:new    ;}
	.st2{fill:#FFFFFF;}
</style>
<g>
	<path class="st0" d="M26,0H4C1.8,0,0,1.8,0,4v22c0,2.2,1.8,4,4,4h22c2.2,0,4-1.8,4-4V4C30,1.8,28.2,0,26,0L26,0z"/>
</g>
<g class="st1">
	<path class="st2" d="M9.6,17.3v1.2H4.7v-7.1h4.8v1.2H6.1v1.7h3v1.1h-3v1.8H9.6z"/>
	<path class="st2" d="M12.6,13.9v4.6h-1.4v-7.1h1.1L16,16v-4.6h1.4v7.1h-1.1L12.6,13.9z"/>
	<path class="st2" d="M24.3,17.7c-0.6,0.6-1.2,0.8-2,0.8c-0.5,0-0.9-0.1-1.3-0.3c-0.4-0.2-0.8-0.4-1.1-0.8c-0.3-0.3-0.5-0.7-0.7-1.2
		s-0.3-0.9-0.3-1.4c0-0.5,0.1-0.9,0.3-1.4s0.4-0.8,0.7-1.1c0.3-0.3,0.7-0.6,1.1-0.8c0.4-0.2,0.9-0.3,1.4-0.3c0.7,0,1.2,0.1,1.7,0.4
		c0.5,0.3,0.8,0.7,1.1,1.1l-1,0.8c-0.2-0.4-0.4-0.6-0.8-0.8c-0.3-0.2-0.7-0.3-1.1-0.3c-0.3,0-0.6,0.1-0.8,0.2
		c-0.2,0.1-0.5,0.3-0.6,0.5c-0.2,0.2-0.3,0.5-0.4,0.8c-0.1,0.3-0.1,0.6-0.1,0.9c0,0.3,0.1,0.6,0.2,0.9s0.3,0.5,0.4,0.8
		c0.2,0.2,0.4,0.4,0.7,0.5c0.3,0.1,0.5,0.2,0.8,0.2c0.7,0,1.3-0.3,1.9-1v-0.5h-1.4v-1h2.6v3.7h-1.1V17.7z"/>
</g>
</svg>
