<?xml version="1.0" encoding="utf-8"?>
<!-- Generator: Adobe Illustrator 26.3.1, SVG Export Plug-In . SVG Version: 6.00 Build 0)  -->
<svg version="1.1" id="Layer_1" xmlns="http://www.w3.org/2000/svg" xmlns:xlink="http://www.w3.org/1999/xlink" x="0px" y="0px"
	 viewBox="0 0 30 30" style="enable-background:new 0 0 30 30;" xml:space="preserve">
<style type="text/css">
	.st0{fill:#FB3640;}
</style>
<g>
	<path class="st0" d="M26,1c1.7,0,3,1.3,3,3v22c0,1.7-1.3,3-3,3H4c-1.7,0-3-1.3-3-3V4c0-1.7,1.3-3,3-3H26 M26,0H4C1.8,0,0,1.8,0,4
		v22c0,2.2,1.8,4,4,4h22c2.2,0,4-1.8,4-4V4C30,1.8,28.2,0,26,0L26,0z"/>
</g>
<g>
	<path class="st0" d="M4,18.3c-0.7-1.8,0-4.4,0.2-5.5c0.1-0.7,1-0.5,0.9,0.1c-0.1,0.7-0.7,2.8-0.5,3.7c0,0.1,0.1,0.1,0.1,0
		c0,0,0.1-0.2,0.2-0.3c0.3-0.4,0.8,0,0.6,0.4c-0.3,0.6-0.5,1-0.5,1.3c-0.1,0.2,0.1,0.5-0.2,0.7C4.5,18.8,4.2,18.7,4,18.3z M6.4,17.7
		C6,17.3,6.6,16.6,7,17c0.5,0.4,1.6,0.3,2.3,0.2c0.7-0.2,0.8,0.8,0.2,1C8.5,18.4,7,18.4,6.4,17.7z M6.9,14.1
		c-0.5,0.1-0.8-0.7-0.1-0.8C7.6,13,8.5,13,9.2,13.2c0.6,0.2,0.5,1-0.2,0.9C8.4,13.9,7.7,13.9,6.9,14.1z"/>
	<path class="st0" d="M11.9,18.3c-0.5-1.6-0.2-3.4,0-4.5c0.1-0.5,0.1-0.8,0.2-1.3c0.1-0.6,1-0.5,0.9,0.1c-0.1,0.4-0.2,0.8-0.3,1.3
		c-0.2,1-0.4,1.7-0.3,2.4c0,0.3,0.1,0.4,0.2,0.1c0-0.1,0.1-0.1,0.1-0.2c0.2-0.5,0.9-0.1,0.6,0.3c-0.3,0.5-0.4,1.1-0.5,1.4
		c0,0.2,0,0.5-0.1,0.7C12.5,18.8,12.1,18.8,11.9,18.3z M14.7,18.4c-0.8-0.4-0.9-1.4,0.1-1.8c0.5-0.2,1-0.2,1.5-0.1
		c0-0.1,0-0.1,0-0.2c0-0.5,0-0.8,0-1.2c-0.6,0.1-1.3,0.2-1.8,0c-0.5-0.1-0.3-1,0.3-0.8c0.3,0.1,0.9,0,1.5-0.1c0-0.4-0.1-0.5-0.1-0.8
		c-0.1-0.5,0.7-0.6,0.8-0.2c0.1,0.2,0.1,0.4,0.1,0.7c0.1-0.1,0.3-0.1,0.4-0.2c0.5-0.3,1,0.5,0.3,0.8c-0.2,0.1-0.4,0.2-0.7,0.3
		c0,0.4,0,0.7,0,1.3c0,0.2,0,0.3,0.1,0.5c0.4,0.2,0.8,0.4,1.1,0.7c0.4,0.4-0.1,1.2-0.6,0.7c-0.2-0.2-0.3-0.3-0.5-0.5
		C16.7,18.4,15.7,18.9,14.7,18.4z M14.7,13.1c-0.5-0.1-0.4-0.9,0.2-0.8c0.6,0.1,1.9-0.2,2.3-0.3c0.5-0.2,0.9,0.6,0.2,0.8
		C16.6,13,15.5,13.2,14.7,13.1z M16.2,17.2c-0.4-0.2-0.9-0.2-1.2,0c-0.3,0.1-0.2,0.4,0,0.5C15.5,18,16.1,17.8,16.2,17.2L16.2,17.2z"
		/>
	<path class="st0" d="M22.9,17.3c0-0.4,0.1-0.7,0-1.1c0-1-1.4-0.2-1.7,0.3c-0.2,0.4-0.5,0.8-0.6,1.2c-0.2,0.7-0.4,0.7-0.5,0.8
		c-0.3,0-0.7-0.2-0.5-0.7c0.4-1,0.9-1.9,1.4-2.7c0.5-0.8,1-1.6,1.4-2.3c0.2-0.3,0.4-0.6,0.5-0.7c0.3-0.5,1.1-0.1,0.8,0.5
		c-0.1,0.1-0.1,0.2-0.2,0.3c-0.1,0.1-0.2,0.2-0.3,0.3c-0.4,0.5-0.7,0.9-1,1.2c-0.2,0.3-0.4,0.6-0.6,0.9c-0.1,0.1,0,0.1,0,0
		c0.3-0.3,1.9-0.7,2,0.8c0,0.4,0,0.7,0,1c0,0.8,0.8,0.7,1.3,0.2c0.5-0.4,0.7-0.8,0.8-1.3c0.3-0.7,1.2-0.2,0.9,0.5
		c-0.3,0.5-0.6,1.1-1.1,1.5C24.7,18.8,22.9,19,22.9,17.3z"/>
</g>
</svg>
