<?xml version="1.0" encoding="utf-8"?>
<!-- Generator: Adobe Illustrator 26.3.1, SVG Export Plug-In . SVG Version: 6.00 Build 0)  -->
<svg version="1.1" id="Layer_1" xmlns="http://www.w3.org/2000/svg" xmlns:xlink="http://www.w3.org/1999/xlink" x="0px" y="0px"
	 viewBox="0 0 210 40" style="enable-background:new 0 0 210 40;" xml:space="preserve">
<style type="text/css">
	.st0{fill:#010101;}
	.st1{fill:#FB3640;}
</style>
<g>
	<circle class="st0" cx="15.1" cy="12.2" r="1.6"/>
	<circle class="st1" cx="23.1" cy="12.2" r="1.6"/>
	<circle class="st0" cx="31.1" cy="12.2" r="1.6"/>
	<circle class="st1" cx="15.1" cy="20.2" r="1.6"/>
	<circle class="st0" cx="23.1" cy="20.2" r="1.6"/>
	<circle class="st1" cx="23.1" cy="28.4" r="1.6"/>
	<circle class="st1" cx="31.1" cy="20.2" r="1.6"/>
	<circle class="st0" cx="15.1" cy="28.2" r="1.6"/>
	<circle class="st0" cx="31.1" cy="28.2" r="1.6"/>
</g>
<g>
	<g>
		<path class="st0" d="M50.9,15.8c0-3.1-1.5-4.7-4.3-4.7h-4.1c-0.1,0-0.1,0.1-0.1,0.1V30c0,0.1,0.1,0.1,0.1,0.1h2.1
			c0.1,0,0.1-0.1,0.1-0.1v-7.6c0-0.1,0.1-0.1,0.1-0.1h1.6c3,0,4.5-1.6,4.5-4.6C50.9,17.7,50.9,15.8,50.9,15.8z M48.6,17.7
			c0,1.7-0.7,2.4-2.2,2.4h-1.6c-0.1,0-0.1-0.1-0.1-0.1v-6.6c0-0.1,0.1-0.1,0.1-0.1h1.8c1.4,0,2,0.8,2,2.4V17.7z"/>
		<path class="st0" d="M57.1,25.6h4l0,0c0.1,0,0.1,0,0.1,0.1L62,30c0,0.1,0.1,0.1,0.1,0.1h2.1h0.1V30l-3.6-18.7
			c0-0.1-0.1-0.1-0.1-0.1h-3c-0.1,0-0.1,0-0.1,0.1L54,30v0.1h0.1H56c0.1,0,0.1,0,0.1-0.1l0.8-4.3C57,25.7,57.1,25.6,57.1,25.6z
			 M59,14.9c0-0.1,0.1-0.1,0.1-0.1c0.1,0,0.1,0,0.1,0.1l1.7,8.5v0.1h-0.1h-3.3l0,0h-0.1v-0.1L59,14.9z"/>
		<path class="st0" d="M76,13.3c0.1,0,0.1-0.1,0.1-0.1v-1.9c0-0.1-0.1-0.1-0.1-0.1h-9c-0.1,0-0.1,0.1-0.1,0.1v1.9
			c0,0.1,0.1,0.1,0.1,0.1h3.2c0.1,0,0.1,0.1,0.1,0.1V30c0,0.1,0.1,0.1,0.1,0.1h2.1c0.1,0,0.1-0.1,0.1-0.1V13.4
			c0-0.1,0.1-0.1,0.1-0.1S76,13.3,76,13.3z"/>
		<path class="st0" d="M88.6,13.3c0.1,0,0.1-0.1,0.1-0.1v-1.9c0-0.1-0.1-0.1-0.1-0.1h-9c-0.1,0-0.1,0.1-0.1,0.1v1.9
			c0,0.1,0.1,0.1,0.1,0.1h3.2c0.1,0,0.1,0.1,0.1,0.1V30c0,0.1,0.1,0.1,0.1,0.1h2.1c0.1,0,0.1-0.1,0.1-0.1V13.4
			c0-0.1,0.1-0.1,0.1-0.1S88.6,13.3,88.6,13.3z"/>
		<path class="st0" d="M93.1,30.1h7.7c0.1,0,0.1-0.1,0.1-0.1v-1.9c0-0.1-0.1-0.1-0.1-0.1h-5.4c-0.1,0-0.1-0.1-0.1-0.1v-6.2
			c0-0.1,0.1-0.1,0.1-0.1h4.3c0.1,0,0.1-0.1,0.1-0.1v-1.9c0-0.1-0.1-0.1-0.1-0.1h-4.3c-0.1,0-0.1-0.1-0.1-0.1v-5.9
			c0-0.1,0.1-0.1,0.1-0.1h5.4c0.1,0,0.1-0.1,0.1-0.1v-1.9c0-0.1-0.1-0.1-0.1-0.1h-7.7c-0.1,0-0.1,0.1-0.1,0.1V30
			C93,30.1,93.1,30.1,93.1,30.1z"/>
		<path class="st0" d="M112.6,30h2.1h0.1v-0.1v-5.2c0-2.1-0.7-3.6-1.9-4.3l-0.1-0.1c0,0,0-0.1,0.1-0.1c1.2-0.6,1.8-1.8,1.8-3.7v-1
			c0-3-1.4-4.4-4.3-4.4h-4.2c-0.1,0-0.1,0.1-0.1,0.1v18.7c0,0.1,0.1,0.1,0.1,0.1h2.1c0.1,0,0.1-0.1,0.1-0.1v-8.2
			c0-0.1,0.1-0.1,0.1-0.1h1.2c2.2,0,2.6,1.7,2.6,3.1v5.2C112.5,30,112.5,30,112.6,30z M109.9,19.5h-1.3c-0.1,0-0.1-0.1-0.1-0.1v-6
			c0-0.1,0.1-0.1,0.1-0.1h1.8c1.4,0,2,0.8,2,2.4V17C112.5,19.1,111.5,19.5,109.9,19.5z"/>
		<path class="st0" d="M122.5,16.4l4.3,13.6c0,0.1,0.1,0.1,0.1,0.1h2.2c0.1,0,0.1-0.1,0.1-0.1V11.3c0-0.1-0.1-0.1-0.1-0.1h-1.8
			c-0.1,0-0.1,0.1-0.1,0.1v11.9c0,0.1,0,0.1-0.1,0.1s-0.1,0-0.1-0.1l-3.8-12c0-0.1-0.1-0.1-0.1-0.1h-2.6c-0.1,0-0.1,0.1-0.1,0.1V30
			c0,0.1,0.1,0.1,0.1,0.1h1.9c0.1,0,0.1-0.1,0.1-0.1V16.5C122.5,16.4,122.5,16.4,122.5,16.4L122.5,16.4
			C122.4,16.3,122.5,16.4,122.5,16.4z"/>
	</g>
	<g>
		<path class="st1" d="M143.7,23.5c0-2-0.7-3.3-2-3.9l-0.1-0.1c0,0,0-0.1,0.1-0.1c1.1-0.6,1.7-1.7,1.7-3.6v-0.4
			c0-2.9-1.3-4.3-4.2-4.3H135c-0.1,0-0.1,0.1-0.1,0.1V30c0,0.1,0.1,0.1,0.1,0.1h4.3c2.9,0,4.4-1.6,4.4-4.5V23.5z M137.2,13.4
			c0-0.1,0.1-0.1,0.1-0.1h1.8c1.4,0,1.9,0.7,1.9,2.3v0.6c0,2-0.9,2.4-2.4,2.4h-1.4c-0.1,0-0.1-0.1-0.1-0.1L137.2,13.4L137.2,13.4z
			 M141.4,25.6c0,1.7-0.6,2.4-2.1,2.4h-2c-0.1,0-0.1-0.1-0.1-0.1v-7c0-0.1,0.1-0.1,0.1-0.1h1.6c1.8,0,2.5,0.7,2.5,2.7V25.6z"/>
		<path class="st1" d="M150.8,25.6h4l0,0c0.1,0,0.1,0,0.1,0.1l0.8,4.3c0,0.1,0.1,0.1,0.1,0.1h2.1h0.1V30l-3.6-18.7
			c0-0.1-0.1-0.1-0.1-0.1h-3c-0.1,0-0.1,0-0.1,0.1L147.7,30v0.1h0.1h1.9c0.1,0,0.1,0,0.1-0.1l0.8-4.3
			C150.7,25.7,150.7,25.6,150.8,25.6z M152.7,14.9c0-0.1,0.1-0.1,0.1-0.1c0.1,0,0.1,0,0.1,0.1l1.7,8.5v0.1h-0.1h-3.3l0,0h-0.1v-0.1
			L152.7,14.9z"/>
		<path class="st1" d="M167.3,19.8L167.3,19.8L167.3,19.8c-1.5-1.2-2.8-2.3-2.8-4.2c0-1.7,0.7-2.5,2-2.5s2,0.9,2,2.6v0.6
			c0,0.1,0.1,0.1,0.1,0.1h2c0.1,0,0.1-0.1,0.1-0.1v-0.5c0-3.1-1.6-4.8-4.3-4.8c-2.8,0-4.3,1.7-4.3,4.8c0,2.8,1.8,4.3,3.5,5.7
			c1.4,1.2,2.8,2.3,2.8,4.2c0,2.1-1.1,2.6-2.1,2.6s-2.1-0.4-2.1-2.6v-1.2c0-0.1-0.1-0.1-0.1-0.1h-2c-0.1,0-0.1,0.1-0.1,0.1v1.1
			c0,3.1,1.6,4.8,4.3,4.8c2.8,0,4.4-1.8,4.4-4.8C170.7,22.7,168.9,21.2,167.3,19.8z"/>
		<path class="st1" d="M175.3,30.1h7.7c0.1,0,0.1-0.1,0.1-0.1v-1.9c0-0.1-0.1-0.1-0.1-0.1h-5.4c-0.1,0-0.1-0.1-0.1-0.1v-6.2
			c0-0.1,0.1-0.1,0.1-0.1h4.3c0.1,0,0.1-0.1,0.1-0.1v-1.9c0-0.1-0.1-0.1-0.1-0.1h-4.3c-0.1,0-0.1-0.1-0.1-0.1v-5.9
			c0-0.1,0.1-0.1,0.1-0.1h5.4c0.1,0,0.1-0.1,0.1-0.1v-1.9c0-0.1-0.1-0.1-0.1-0.1h-7.7c-0.1,0-0.1,0.1-0.1,0.1V30
			C175.2,30.1,175.2,30.1,175.3,30.1z"/>
		<path class="st1" d="M196.5,15.9c0-3.1-1.6-4.8-4.4-4.8h-4.4c-0.1,0-0.1,0.1-0.1,0.1V30c0,0.1,0.1,0.1,0.1,0.1h4.4
			c2.8,0,4.4-1.7,4.4-4.8V15.9z M194.2,25.4c0,1.7-0.7,2.5-2.1,2.5h-2c-0.1,0-0.1-0.1-0.1-0.1V13.4c0-0.1,0.1-0.1,0.1-0.1h2
			c1.4,0,2.1,0.8,2.1,2.5V25.4z"/>
	</g>
</g>
</svg>
