<?xml version="1.0" encoding="utf-8"?>
<!-- Generator: Adobe Illustrator 26.3.1, SVG Export Plug-In . SVG Version: 6.00 Build 0)  -->
<svg version="1.1" id="Layer_1" xmlns="http://www.w3.org/2000/svg" xmlns:xlink="http://www.w3.org/1999/xlink" x="0px" y="0px"
	 viewBox="0 0 30 30" style="enable-background:new 0 0 30 30;" xml:space="preserve">
<style type="text/css">
	.st0{fill:#247BA0;}
	.st1{fill:#FB3640;}
	.st2{fill:#FFFFFF;}
</style>
<polygon class="st0" points="0.2,11 7.9,11 0.2,3.3 "/>
<polygon class="st1" points="25.7,0 28.7,2 1.3,2 4,0 "/>
<rect x="14" y="-10" transform="matrix(9.094953e-11 -1 1 9.094953e-11 9.9504 19.9504)" class="st1" width="2" height="29.9"/>
<rect x="14" y="-6" transform="matrix(9.094953e-11 -1 1 9.094953e-11 5.9504 23.9504)" class="st1" width="2" height="29.9"/>
<rect x="14" y="-2" transform="matrix(9.094953e-11 -1 1 9.094953e-11 1.9504 27.9504)" class="st1" width="2" height="29.9"/>
<rect x="14" y="2" transform="matrix(9.094953e-11 -1 1 9.094953e-11 -2.0496 31.9504)" class="st1" width="2" height="29.9"/>
<rect x="14" y="6" transform="matrix(9.094953e-11 -1 1 9.094953e-11 -6.0496 35.9504)" class="st1" width="2" height="29.9"/>
<rect x="14" y="10" transform="matrix(9.094953e-11 -1 1 9.094953e-11 -10.0496 39.9504)" class="st1" width="2" height="29.9"/>
<polygon class="st1" points="28.9,28 25.7,30 4.4,30 1.2,28 "/>
<path class="st0" d="M15,18H0V4c0-2.2,1.8-4,4-4h11V18z"/>
<g>
	<g>
		<rect x="11.9" y="2" class="st2" width="2" height="2"/>
	</g>
	<g>
		<rect x="6.9" y="2" class="st2" width="2" height="2"/>
	</g>
	<g>
		<rect x="1.8" y="2" class="st2" width="2" height="2"/>
	</g>
	<g>
		<rect x="11.9" y="10" class="st2" width="2" height="2"/>
	</g>
	<g>
		<rect x="6.9" y="10" class="st2" width="2" height="2"/>
	</g>
	<g>
		<rect x="1.8" y="10" class="st2" width="2" height="2"/>
	</g>
	<g>
		<rect x="9.4" y="6" class="st2" width="2" height="2"/>
	</g>
	<g>
		<rect x="4.4" y="6" class="st2" width="2" height="2"/>
	</g>
	<g>
		<rect x="9.4" y="14" class="st2" width="2" height="2"/>
	</g>
	<g>
		<rect x="4.4" y="14" class="st2" width="2" height="2"/>
	</g>
</g>
<g>
	<path class="st1" d="M26,1c1.7,0,3,1.3,3,3v22c0,1.7-1.3,3-3,3H4c-1.7,0-3-1.3-3-3V4c0-1.7,1.3-3,3-3H26 M26,0H4C1.8,0,0,1.8,0,4
		v22c0,2.2,1.8,4,4,4h22c2.2,0,4-1.8,4-4V4C30,1.8,28.2,0,26,0L26,0z"/>
</g>
</svg>
