<?xml version="1.0" encoding="utf-8"?>
<!-- Generator: Adobe Illustrator 26.3.1, SVG Export Plug-In . SVG Version: 6.00 Build 0)  -->
<svg version="1.1" id="Layer_1" xmlns="http://www.w3.org/2000/svg" xmlns:xlink="http://www.w3.org/1999/xlink" x="0px" y="0px"
	 viewBox="0 0 30 30" style="enable-background:new 0 0 30 30;" xml:space="preserve">
<style type="text/css">
	.st0{fill:#FFFFFF;}
	.st1{fill:#FB3640;}
	.st2{fill:#247BA0;}
</style>
<g>
	<path class="st0" d="M26,30H4c-2.2,0-4-1.8-4-4V4c0-2.2,1.8-4,4-4h22c2.2,0,4,1.8,4,4v22C30,28.2,28.2,30,26,30z"/>
</g>
<rect x="14" y="-3.8" transform="matrix(-0.7071 -0.7071 0.7071 -0.7071 14.914 36.2488)" class="st1" width="2" height="37.6"/>
<rect x="14" y="-3.8" transform="matrix(-0.7071 0.7071 -0.7071 -0.7071 36.1776 15.086)" class="st1" width="2" height="37.6"/>
<rect x="11" class="st0" width="8" height="30"/>
<rect x="11" transform="matrix(2.251005e-11 -1 1 2.251005e-11 -3.371969e-10 30)" class="st0" width="8" height="30"/>
<rect x="13" class="st1" width="4" height="30"/>
<rect x="13" y="0" transform="matrix(4.502005e-11 -1 1 4.502005e-11 -6.743921e-10 30)" class="st1" width="4" height="30"/>
<polygon class="st2" points="11,29.8 11,22.1 3.3,29.8 "/>
<polygon class="st2" points="0.1,19 7.8,19 0.1,26.7 "/>
<polygon class="st2" points="29.8,19 22.1,19 29.8,26.7 "/>
<polygon class="st2" points="19,29.9 19,22.2 26.7,29.9 "/>
<polygon class="st2" points="19,0.2 19,7.9 26.7,0.2 "/>
<polygon class="st2" points="29.9,11 22.2,11 29.9,3.3 "/>
<polygon class="st2" points="0.2,11 7.9,11 0.2,3.3 "/>
<polygon class="st2" points="11,0.1 11,7.8 3.3,0.1 "/>
<g>
	<path class="st1" d="M26,1c1.7,0,3,1.3,3,3v22c0,1.7-1.3,3-3,3H4c-1.7,0-3-1.3-3-3V4c0-1.7,1.3-3,3-3H26 M26,0H4C1.8,0,0,1.8,0,4
		v22c0,2.2,1.8,4,4,4h22c2.2,0,4-1.8,4-4V4C30,1.8,28.2,0,26,0L26,0z"/>
</g>
</svg>
