<?xml version="1.0" encoding="utf-8"?>
<!-- Generator: Adobe Illustrator 26.3.1, SVG Export Plug-In . SVG Version: 6.00 Build 0)  -->
<svg version="1.1" id="Layer_1" xmlns="http://www.w3.org/2000/svg" xmlns:xlink="http://www.w3.org/1999/xlink" x="0px" y="0px"
	 viewBox="0 0 30 30" style="enable-background:new 0 0 30 30;" xml:space="preserve">
<style type="text/css">
	.st0{fill:#FFFFFF;}
	.st1{fill:#FB3640;}
</style>
<g>
	<path class="st0" d="M4,29.5c-1.9,0-3.5-1.6-3.5-3.5V4c0-1.9,1.6-3.5,3.5-3.5h22c1.9,0,3.5,1.6,3.5,3.5v22c0,1.9-1.6,3.5-3.5,3.5H4
		z"/>
	<path class="st1" d="M26,1c1.7,0,3,1.3,3,3v22c0,1.7-1.3,3-3,3H4c-1.7,0-3-1.3-3-3V4c0-1.7,1.3-3,3-3H26 M26,0H4C1.8,0,0,1.8,0,4
		v22c0,2.2,1.8,4,4,4h22c2.2,0,4-1.8,4-4V4C30,1.8,28.2,0,26,0L26,0z"/>
</g>
<path class="st1" d="M15,22.5L15,22.5c-4.1,0-7.5-3.4-7.5-7.5v0c0-4.1,3.4-7.5,7.5-7.5h0c4.1,0,7.5,3.4,7.5,7.5v0
	C22.5,19.1,19.1,22.5,15,22.5z"/>
</svg>
